<?xml version="1.0" standalone="no"?>
<!DOCTYPE svg PUBLIC "-//W3C//DTD SVG 20010904//EN"
 "http://www.w3.org/TR/2001/REC-SVG-20010904/DTD/svg10.dtd">
<svg version="1.0" xmlns="http://www.w3.org/2000/svg"
 width="369.000000pt" height="369.000000pt" viewBox="0 0 369.000000 369.000000"
 preserveAspectRatio="xMidYMid meet">
<metadata>
Created by potrace 1.14, written by Peter Selinger 2001-2017
</metadata>
<g transform="translate(0.000000,369.000000) scale(0.100000,-0.100000)"
fill="#000000" stroke="none">
<path d="M2356 3609 c4 -13 7 -30 7 -36 0 -7 4 -13 10 -13 5 0 7 -6 4 -12 -2
-7 -1 -22 3 -33 30 -81 33 -355 6 -470 -1 -5 -6 -26 -10 -45 -4 -19 -11 -44
-16 -55 -4 -11 -16 -42 -25 -70 -19 -56 -93 -203 -112 -223 -6 -6 -15 -21 -18
-32 -3 -11 -11 -20 -16 -20 -5 0 -9 -5 -9 -11 0 -33 -331 -386 -350 -374 -7 4
-45 117 -56 168 -2 9 -6 27 -9 40 -27 110 -37 201 -36 317 1 102 4 144 14 185
2 11 7 38 11 60 9 51 46 166 59 183 5 6 6 12 2 12 -4 0 -1 7 6 16 7 9 14 21
15 28 3 20 95 166 105 166 6 0 8 4 4 9 -3 6 -19 -3 -36 -20 -16 -16 -35 -29
-41 -29 -6 0 -8 -3 -5 -6 4 -4 -8 -24 -26 -44 -56 -65 -77 -95 -77 -108 0 -8
-5 -10 -12 -6 -7 4 -10 4 -6 0 7 -9 -40 -117 -56 -128 -6 -4 -8 -8 -4 -8 6 0
-9 -57 -29 -110 -42 -110 -51 -382 -18 -565 12 -69 37 -165 55 -216 17 -46 17
-49 0 -68 -9 -12 -20 -17 -24 -13 -4 4 -6 2 -4 -4 2 -7 -19 -35 -45 -63 -27
-28 -46 -51 -43 -51 3 0 -5 -11 -17 -24 -13 -13 -29 -37 -37 -53 -8 -15 -24
-44 -36 -63 -12 -19 -21 -37 -22 -40 0 -3 -5 -16 -10 -30 -5 -14 -11 -29 -12
-35 -1 -5 -6 -18 -12 -28 -12 -22 -44 -146 -53 -207 -4 -25 -9 -53 -11 -64
-16 -85 -22 -379 -10 -478 8 -70 34 -237 41 -268 1 -3 5 -21 9 -40 12 -56 17
-70 24 -70 4 0 8 105 8 233 1 127 5 266 9 307 5 41 8 87 9 102 0 16 3 28 7 28
4 0 6 8 5 17 -2 10 1 36 6 58 6 22 12 50 14 63 11 62 21 105 24 110 3 2 4 7
14 47 33 129 135 313 216 389 30 27 31 28 45 10 8 -11 20 -32 26 -49 7 -16 16
-32 20 -35 4 -3 36 -66 72 -140 59 -123 79 -173 92 -226 23 -97 35 -160 40
-224 4 -41 8 -76 10 -78 2 -2 -1 -17 -5 -33 -5 -18 -5 -29 1 -29 6 0 8 -4 5
-8 -3 -5 -7 -44 -11 -88 -5 -71 -10 -110 -15 -124 -1 -3 -2 -8 -1 -12 0 -4 -5
-34 -13 -67 -8 -33 -11 -62 -8 -65 3 -3 0 -6 -7 -6 -7 0 -9 -5 -6 -10 4 -6 1
-25 -5 -44 -6 -18 -12 -42 -14 -53 -14 -68 -118 -389 -143 -436 -27 -52 -7
-37 34 26 69 104 172 314 220 447 27 76 78 265 89 330 10 64 11 337 0 390 -5
25 -9 55 -10 68 0 12 -3 22 -6 22 -3 0 -6 8 -7 18 -1 10 -11 45 -23 78 -11 32
-22 64 -23 69 -1 6 -4 12 -7 15 -12 12 -190 376 -190 389 0 7 25 37 57 65 81
73 183 177 183 186 0 5 4 10 9 12 12 4 101 119 101 130 0 5 6 6 13 2 6 -4 9
-4 5 1 -4 4 1 20 12 35 11 16 20 33 20 39 0 6 4 11 8 11 5 0 24 33 43 73 19
39 37 74 42 75 4 2 7 12 7 21 0 10 7 31 15 48 19 37 62 205 59 227 -1 9 1 16
5 16 10 0 7 283 -3 325 -4 17 -14 55 -22 85 -8 30 -17 62 -19 72 -6 27 -66
148 -77 154 -6 4 -7 -2 -2 -17z"/>
</g>
</svg>
